<?xml version="1.0" encoding="UTF-8"?>
<svg id="Layer_2" data-name="Layer 2" xmlns="http://www.w3.org/2000/svg" xmlns:xlink="http://www.w3.org/1999/xlink" viewBox="0 0 202.76 51.47">
  <defs>
    <style>
      .cls-1 {
        fill: #000;
      }

      .cls-1, .cls-2 {
        stroke-width: 0px;
      }

      .cls-2 {
        fill: none;
      }

      .cls-3 {
        clip-path: url(#clippath);
      }
    </style>
    <clipPath id="clippath">
      <rect class="cls-2" width="42.73" height="51.47"/>
    </clipPath>
  </defs>
  <g id="PRINT">
    <g>
      <g>
        <path class="cls-1" d="M52.76.47h14.35v7.6h-6.07v3.78h4.93v7.77h-4.93v12.44h-8.28V.47Z"/>
        <path class="cls-1" d="M76.33,28.15h-3.1l-.38,3.91h-7.3L69.66.47h10.66l4.59,31.59h-8.19l-.38-3.91ZM73.95,21.06h1.66l-.85-8.32-.81,8.32Z"/>
        <path class="cls-1" d="M93.91,32.06h-8.49V.47h8.49v10.1l2.8-10.1h8.45l-4.03,13.76,4.08,17.83h-8.83l-2.46-11.55v11.55Z"/>
        <path class="cls-1" d="M120.19.47v7.6h-6.24v3.78h5.14v7.77h-5.14v4.76h6.45v7.69h-14.73V.47h14.52Z"/>
        <path class="cls-1" d="M121.46.47h12.86c1.7,0,3.07.49,4.12,1.46,1.05.98,1.57,2.58,1.57,4.82v2.68c0,.85-.13,1.59-.38,2.21-.26.62-.56,1.15-.91,1.57-.35.42-.72.75-1.08.98-.37.23-.66.38-.89.47.34.11.74.29,1.19.53.45.24.88.58,1.29,1.02.41.44.76,1.01,1.06,1.72.3.71.45,1.57.45,2.59v3.99c0,2.49-.55,4.37-1.63,5.65-1.09,1.27-2.67,1.91-4.73,1.91h-12.91V.47ZM129.95,6.5v5.99h.64c.65,0,.98-.42.98-1.27v-3.48c0-.42-.06-.74-.17-.93-.11-.2-.38-.3-.81-.3h-.64ZM129.95,18.38v7.43h.89c.4,0,.66-.11.79-.32.13-.21.19-.53.19-.96v-4.88c0-.85-.33-1.27-.98-1.27h-.89Z"/>
        <path class="cls-1" d="M161.16,22.97c0,1.59-.22,2.97-.66,4.16-.44,1.19-1.05,2.18-1.85,2.97-.79.79-1.74,1.39-2.84,1.8-1.1.41-2.32.62-3.65.62h-1.49c-2.92,0-5.15-.82-6.71-2.46-1.56-1.64-2.34-4.01-2.34-7.09v-13.12c0-3.03.71-5.43,2.14-7.2,1.43-1.77,3.73-2.65,6.9-2.65h1.44c1.56,0,2.91.23,4.06.7,1.15.47,2.09,1.13,2.82,2,.74.86,1.28,1.9,1.63,3.12.35,1.22.53,2.56.53,4.03v13.12ZM152.41,8.91c0-.48-.07-.84-.21-1.08-.14-.24-.41-.36-.81-.36-.65,0-.98.48-.98,1.44v14.83c0,.87.32,1.31.98,1.31s1.02-.44,1.02-1.31v-14.83Z"/>
        <path class="cls-1" d="M181.79,22.97c0,1.59-.22,2.97-.66,4.16-.44,1.19-1.05,2.18-1.85,2.97-.79.79-1.74,1.39-2.84,1.8-1.1.41-2.32.62-3.65.62h-1.49c-2.92,0-5.15-.82-6.71-2.46-1.56-1.64-2.34-4.01-2.34-7.09v-13.12c0-3.03.71-5.43,2.14-7.2,1.43-1.77,3.73-2.65,6.9-2.65h1.44c1.56,0,2.91.23,4.06.7,1.15.47,2.09,1.13,2.82,2,.74.86,1.28,1.9,1.63,3.12.35,1.22.53,2.56.53,4.03v13.12ZM173.04,8.91c0-.48-.07-.84-.21-1.08-.14-.24-.41-.36-.81-.36-.65,0-.98.48-.98,1.44v14.83c0,.87.32,1.31.98,1.31s1.02-.44,1.02-1.31v-14.83Z"/>
        <path class="cls-1" d="M191.47,32.06h-8.49V.47h8.49v10.1l2.8-10.1h8.45l-4.03,13.76,4.08,17.83h-8.83l-2.46-11.55v11.55Z"/>
      </g>
      <g>
        <path class="cls-1" d="M62.54,47.51c0,2.08-1.69,3.77-3.77,3.77h-6v-13.01h5.52c1.94,0,3.51,1.57,3.51,3.51,0,.99-.41,1.68-1.07,2.31,1.09.66,1.82,2.05,1.82,3.42ZM54.31,43.74h3.97c1.08,0,1.96-.88,1.96-1.96s-.88-1.96-1.96-1.96h-3.97v3.93ZM58.77,49.73c1.23,0,2.22-1,2.22-2.22s-.93-3-2.73-3h-3.95v5.22h4.46Z"/>
        <path class="cls-1" d="M71.35,40.26c3.88-4.31,10.53-.97,10.43,4.53.06,5.45-6.54,8.75-10.41,4.51-2.34-2.41-2.34-6.6-.03-9.04h0ZM80.09,44.79c.16-3.32-2.86-7.07-6.32-5.1-3.36,2.16-3.38,8.07-.02,10.25,3.49,2,6.54-1.8,6.34-5.15Z"/>
        <path class="cls-1" d="M90.52,40.26c3.88-4.31,10.53-.97,10.43,4.53.06,5.45-6.54,8.75-10.41,4.51-2.34-2.41-2.34-6.6-.03-9.04h0ZM99.26,44.79c.16-3.32-2.86-7.07-6.32-5.1-3.36,2.16-3.38,8.07-.02,10.25,3.49,2,6.54-1.8,6.34-5.15Z"/>
        <path class="cls-1" d="M117.03,51.28l-4.3-5.98c-.87.42-1.76.79-2.61,1.13l-.04.02v4.84h-1.55v-13.06h1.55v7.38c.98-.4,2.01-.82,2.98-1.34-.35-.56-.72-1.23-.86-1.98-.16-.91.07-1.91.6-2.63.65-.88,1.76-1.42,2.74-1.42.97.03,1.83.83,1.97,1.82.12.85-.26,1.74-1.16,2.72-.64.7-1.41,1.28-2.23,1.77l4.83,6.72h-1.9ZM112.96,42.15c.11.63.45,1.22.76,1.72l-.36.22c.9-.51,1.74-1.1,2.41-1.84.73-.8,1.05-1.48.97-2.09-.09-.63-.63-1.13-1.23-1.15h-.05c-.72,0-1.56.45-2.04,1.11-.41.55-.58,1.32-.46,2.03h0Z"/>
        <path class="cls-1" d="M129.79,43.73c2.01.49,4.76,1.17,4.76,4.01,0,1.83-1.47,3.7-4.75,3.74h-.04c-.12,0-.27,0-.44-.03-2.43-.26-4.26-2.35-4.26-4.85v-.12h1.55v.12c0,1.71,1.24,3.13,2.87,3.31.12.01.22.02.3.02,1.99-.02,3.22-.86,3.22-2.19,0-1.51-1.42-1.97-3.58-2.5-.65-.16-1.26-.31-1.79-.52-1.45-.58-2.32-1.66-2.32-2.9,0-2.06,2.01-3.74,4.48-3.74,2.74,0,4,2.03,4,4.5v.24h-.86v-.24c0-1.62-1.24-2.96-3.15-2.96-1.62,0-2.93.98-2.93,2.19,0,.87,1.03,1.34,1.34,1.47.43.17.99.31,1.59.46h0Z"/>
        <path class="cls-1" d="M151.05,39.05h-4.6v12.23h-1.55v-12.23h-4.6v-.77h10.76v.77Z"/>
        <path class="cls-1" d="M168.47,44.79c.06,5.45-6.54,8.75-10.41,4.51-2.33-2.41-2.34-6.6-.03-9.04,3.88-4.31,10.53-.97,10.43,4.53ZM166.78,44.79c.16-3.32-2.86-7.07-6.32-5.1-3.36,2.16-3.38,8.07-.02,10.25,3.49,2,6.54-1.8,6.34-5.15Z"/>
        <path class="cls-1" d="M181.32,47.46c1.11.5,2.09,1.23,2.88,2.15l1.43,1.67h-2.04l-1.92-2.21c-.8-.92-1.96-1.45-3.18-1.45h-.02v-.95h1.92c.12,0,.22,0,.33-.02.29-.01.55-.05.8-.12,1.93-.46,2.78-2.13,2.78-3.59,0-1.73-1.29-3.86-3.91-3.86h-2.79v8.53h0v3.66h-1.55v-6.26h0v-6.75h4.91c2.33,0,4.44,1.61,4.82,3.9.42,2.52-1.26,4.63-4.47,5.29h0Z"/>
        <path class="cls-1" d="M194.97,39.81v4.2h5.5v.77h-5.5v4.95h7.8v1.55h-9.35v-13.01h9.35v1.55h-7.8Z"/>
      </g>
      <g class="cls-3">
        <path id="CUSTOM" class="cls-1" d="M47.82,27.24h5.4c.61,0,1.16-.37,1.39-.93.23-.55.11-1.19-.3-1.62,0,0-.02-.02-.02-.02-2.74-2.63-2.74-7.35,0-9.98,0,0,.02-.02.02-.02.41-.43.53-1.07.3-1.62-.23-.56-.78-.93-1.39-.93h-5.4c-2.35-2.68-2.17-7.06.4-9.54.43-.43.56-1.08.33-1.64-.23-.56-.78-.93-1.39-.93H8.55C5.63,0,3.25,2.37,3.25,5.29v4.54c0,2.92,2.37,5.29,5.29,5.29h1.28c-.33.69-.52,1.46-.52,2.28v4.54c0,.81.19,1.59.52,2.28h-1.28c-2.92,0-5.29,2.37-5.29,5.29v4.54c0,2.92,2.37,5.29,5.29,5.29h1.28c-.33.69-.52,1.46-.52,2.28v4.54c0,2.92,2.37,5.29,5.29,5.29h38.61c.61,0,1.16-.37,1.39-.93.23-.55.11-1.19-.3-1.62,0,0-.02-.02-.02-.02-2.74-2.63-2.74-7.35,0-9.98,0,0,.02-.02.02-.02.41-.43.53-1.07.3-1.62-.23-.56-.78-.93-1.39-.93h-5.4c-2.2-2.51-2.2-6.59,0-9.1ZM6.27,9.84v-4.54c0-1.26,1.02-2.28,2.28-2.28h35.68c-1.43,2.76-1.43,6.34,0,9.1H8.55c-1.26,0-2.28-1.02-2.28-2.28ZM21.41,15.13h3.04v2.94l-.88-.41c-.55-.26-1.04-.11-1.28,0l-.88.41v-2.94h0ZM12.33,21.95v-4.54c0-1.26,1.02-2.28,2.28-2.28h3.79v5.31c0,.52.26,1,.7,1.27.43.28.98.31,1.45.09l2.39-1.12,2.39,1.12c.2.09.81.31,1.45-.09.43-.28.7-.76.7-1.27v-5.31h22.81c-1.43,2.76-1.43,6.34,0,9.1H14.6c-1.26,0-2.28-1.02-2.28-2.28h0ZM33.52,27.24h3.04v2.94l-.88-.41c-.23-.11-.73-.26-1.28,0l-.88.41v-2.94ZM50.28,48.46H14.6c-1.26,0-2.28-1.02-2.28-2.28v-4.54c0-1.26,1.02-2.28,2.28-2.28h35.68c-1.43,2.76-1.43,6.34,0,9.1ZM8.55,36.34c-1.26,0-2.28-1.02-2.28-2.28v-4.54c0-1.26,1.02-2.28,2.28-2.28h21.96v5.31c0,.52.26,1,.7,1.27.43.28.98.31,1.45.09l2.39-1.12,2.39,1.12c.2.09.81.31,1.45-.09.43-.28.7-.76.7-1.27v-5.31h4.64c-1.43,2.76-1.43,6.34,0,9.1H8.55Z"/>
      </g>
    </g>
  </g>
</svg>