<?xml version="1.0" encoding="UTF-8"?>
<svg id="Layer_2" data-name="Layer 2" xmlns="http://www.w3.org/2000/svg" viewBox="0 0 811.6 566.44">
  <defs>
    <style>
      .cls-1 {
        fill: #ccc;
      }

      .cls-1, .cls-2, .cls-3, .cls-4, .cls-5, .cls-6, .cls-7, .cls-8 {
        stroke-width: 0px;
      }

      .cls-2 {
        fill: #ffb8b8;
      }

      .cls-3 {
        fill: #f2f2f2;
      }

      .cls-4 {
        fill: #0a26ba;
      }

      .cls-5 {
        fill: #003da5;
      }

      .cls-6 {
        fill: #59002e;
      }

      .cls-7 {
        fill: #fff;
      }

      .cls-8 {
        fill: #ff4f0d;
      }
    </style>
  </defs>
  <g id="Calque_1" data-name="Calque 1">
    <path class="cls-3" d="M541.7,431.44v130H216c-37.1,0-67.3-29.2-67.3-65s30.2-65,67.3-65h325.7Z"/>
    <path class="cls-8" d="M549.7,560.44c0,2.8-2.2,5-5,5H210.2c-37.8,0-68.5-30.7-68.5-68.5s30.7-68.5,68.5-68.5h334.5c2.8,0,5,2.2,5,5s-2.2,5-5,5H210.2c-32.3,0-58.5,26.2-58.5,58.5s26.2,58.5,58.5,58.5h334.5c2.8,0,5,2.2,5,5Z"/>
    <path class="cls-1" d="M541.7,461.44H191.7c-.6,0-1-.4-1-1s.4-1,1-1h350c.6,0,1,.4,1,1s-.4,1-1,1Z"/>
    <path class="cls-1" d="M541.7,485.44H191.7c-.6,0-1-.4-1-1s.4-1,1-1h350c.6,0,1,.4,1,1s-.4,1-1,1Z"/>
    <path class="cls-1" d="M541.7,509.44H191.7c-.6,0-1-.4-1-1s.4-1,1-1h350c.6,0,1,.4,1,1s-.4,1-1,1Z"/>
    <path class="cls-1" d="M541.7,533.44H191.7c-.6,0-1-.4-1-1s.4-1,1-1h350c.6,0,1,.4,1,1s-.4,1-1,1Z"/>
    <path class="cls-3" d="M793.4,455.94l-81.5,101.2-253.6-204.4c-28.9-23.3-34.1-64.9-11.6-92.8s64.3-31.7,93.2-8.4l253.5,204.4Z"/>
    <path class="cls-4" d="M718.7,561.34c-1.7,2.1-4.9,2.5-7,.8l-260.5-209.9c-29.5-23.7-34.1-66.9-10.4-96.3,23.7-29.5,66.9-34.1,96.3-10.4l260.5,209.9c2.2,1.7,2.5,4.9.8,7s-4.9,2.5-7,.8h0l-260.5-209.9c-25.2-20.3-62-16.3-82.3,8.8-20.3,25.2-16.3,62,8.8,82.3l260.5,209.9c2.2,1.7,2.6,4.9.8,7Z"/>
    <path class="cls-1" d="M774.6,479.24l-272.5-219.6c-.4-.3-.5-1-.2-1.4s1-.5,1.4-.2h0l272.5,219.6c.4.3.5,1,.2,1.4-.3.5-1,.6-1.4.2h0Z"/>
    <path class="cls-1" d="M759.6,497.94l-272.6-219.6c-.4-.3-.5-1-.1-1.4.3-.4,1-.5,1.4-.2l272.5,219.6c.4.3.5,1,.2,1.4-.4.5-1,.6-1.4.2h0Z"/>
    <path class="cls-1" d="M744.5,516.64l-272.5-219.6c-.4-.3-.5-1-.1-1.4.3-.4,1-.5,1.4-.2l272.5,219.6c.4.3.5,1,.2,1.4-.4.5-1.1.5-1.5.2h0Z"/>
    <path class="cls-1" d="M729.4,535.34l-272.5-219.6c-.4-.3-.5-1-.2-1.4s1-.5,1.4-.2h0l272.5,219.6c.4.3.5,1,.2,1.4-.3.5-.9.5-1.4.2h0Z"/>
    <path class="cls-1" d="M810.6,566.44H68.6c-.6,0-1-.4-1-1s.4-1,1-1h742c.6,0,1,.4,1,1s-.4,1-1,1Z"/>
    <polygon class="cls-2" points="405.7 417.74 394.2 417.74 388.8 373.64 405.7 373.64 405.7 417.74"/>
    <path class="cls-6" d="M386.1,414.54h22v13.9h-35.9c0-7.7,6.2-13.9,13.9-13.9h0Z"/>
    <polygon class="cls-2" points="288.9 417.74 277.5 417.74 272 373.64 288.9 373.64 288.9 417.74"/>
    <path class="cls-6" d="M269.3,414.54h22v13.9h-35.9c0-7.7,6.2-13.9,13.9-13.9h0Z"/>
    <path class="cls-6" d="M327.1,90.64v-5c0-17.8,14.4-32.2,32.2-32.2h0c17.8,0,32.2,14.4,32.2,32.2h0v5c0,12.8-10.4,23.2-23.2,23.2h-18c-12.8.1-23.2-10.3-23.2-23.2h0Z"/>
    <circle class="cls-2" cx="359.3" cy="91.04" r="24.6"/>
    <path class="cls-2" d="M225.7,175.54c3.8-3.6,9.7-3.4,13.3.4.4.4.7.8,1,1.3l21.1-4,5.5,12.2-29.8,5.2c-4.5,2.6-10.3,1-12.8-3.6-2.2-3.8-1.5-8.6,1.7-11.5Z"/>
    <path class="cls-6" d="M340.2,131.14l.3.4-34.5,22.7-58.3,18.6c-1.6.5-2.6,2.1-2.4,3.7l1.3,10.9c.2,1.9,2,3.3,3.9,3.1.1,0,.2,0,.3-.1l54.8-11.8c2.7-.6,5.2-1.7,7.4-3.2l38.8-27.6c2.9-2,4.4-5.4,4.2-8.9-.5-5.5-5.3-9.6-10.8-9.1-1.7.1-3.3.7-4.7,1.6l-.3-.3Z"/>
    <path class="cls-4" d="M394.5,405.24c-1.8,0-3.4-1.1-4.1-2.7l-52.4-129.5c-.3-.8-1.2-1.1-2-.8-.4.2-.7.5-.8.9l-42.8,126.1c-.7,2.4-3.2,3.7-5.6,3-.1,0-.2-.1-.3-.1l-14.3-5.4c-1.6-.6-2.7-2-2.9-3.7-6.5-56.2,49.8-198,50.4-199.5l.2-.4,51.3,11.3.1.1c20.5,22.3,37.3,163.1,40.4,191.1.2,2.1-1,4.1-3,4.7l-12.7,4.5c-.5.3-1,.4-1.5.4Z"/>
    <path class="cls-6" d="M350.3,209.14c-12.4,0-26.3-2.5-30.5-12.7l-.1-.2.1-.2c3.4-5.5,7.8-14.9,5.4-16.7-4.7-3.5-7-9.2-6.8-17,.4-17,12-32,28.8-37.5h0c4.7-1.5,9.4-2.7,14.3-3.7,7.1-1.4,14.5.4,20.1,5,5.7,4.6,9,11.5,9.1,18.9.2,18.1-2.6,43.4-16.9,60.7-.7.8-1.6,1.3-2.6,1.5-7,1.2-13.9,1.9-20.9,1.9Z"/>
    <path class="cls-2" d="M345.7,208.44c1.4-5,6.6-8,11.7-6.7.5.1,1,.3,1.4.5l16-14.5,11.1,7.5-22.9,20.2c-2.1,3.8-6.6,5.7-10.8,4.6-5-1.3-7.9-6.5-6.5-11.6q-.1.1,0,0Z"/>
    <path class="cls-6" d="M372.2,208.64c-1,0-2-.4-2.8-1l-6.3-5.2c-1.9-1.6-2.2-4.4-.6-6.3.2-.3.5-.5.7-.7l26.4-20.3c.7-.5.8-1.4.3-2.1l-16.3-21.6c-3.9-5.2-3.5-12.4.9-17.1h0c4.7-5.1,12.5-5.7,17.9-1.4l.1.1,17,24.4c6.6,5.2,7.8,14.7,2.6,21.3-.8,1.1-1.8,2-2.9,2.9l-34.2,26.1c-.9.6-1.8.9-2.8.9Z"/>
    <path class="cls-6" d="M337.6,84.14v-12.2l21.8-9.5,20.7,9.5v12.2c0,1.1-.9,2-2,2h-38.5c-1.1,0-2-.9-2-2Z"/>
    <path class="cls-6" d="M358.3,55.04c-3.2-10.2,3.5-22,13.5-26s21.8-1.2,30.2,5.5c8.4,6.7,13.6,16.7,16.3,27.1,2.7,10.4,3.3,21.2,3.8,31.9,12.2,2.2,20.5,16.7,16.3,28.4s-19.9,17.5-30.7,11.4-13.9-22.5-6.1-32.1c9.2-11.3,7.4-27.9-3.9-37.1-7.5-6.1-17.8-7.6-26.8-3.8-6.1,2.3-13.6-4.2-12.6-5.3Z"/>
    <polygon class="cls-6" points="239.51 424.98 220.42 .21 225.63 0 244.71 424.77 239.51 424.98"/>
    <g>
      <path class="cls-7" d="M56.54,48.79c-2.97,1.3-4.84,5.02-4.68,10.42-.53.03-1.06.06-1.58.08-.23-4.89.55-6.49,2.48-12.79,1-2.98.15-6.52-1.99-9.72-.79-1.14-1.74-2.16-2.81-3.27-.96,1.2-1.81,2.3-2.49,3.51-1.83,3.37-2.35,6.98-1.08,9.86,2.51,6.1,3.44,7.62,3.66,12.52-.53.02-1.06.04-1.58.06-.35-5.39-2.55-8.93-5.63-9.97-1.35-.48-3.07-.23-4.58,1.39-1.87,1.98-2.18,7.57,3.62,8.63-.66-.89-.68-2.88.5-3.58.9-.48,1.98-.31,2.47.08.83.46,1.65,1.95,1.73,3.51-.91.02-1.81.04-2.72.06l.14,3.05c1.89-.03,3.77-.08,5.65-.15,0,1.59-.79,2.85-2.34,3.58.22.66,1.25,1.98,2.57,1.83.33,1.41.6,2.2,1.84,3.45,1.12-1.35,1.32-2.17,1.51-3.6,1.33.03,2.23-1.38,2.39-2.05-1.61-.59-2.52-1.78-2.67-3.36,1.88-.09,3.76-.21,5.65-.34l-.14-3.05c-.91.06-1.81.12-2.72.18-.07-1.56.61-3.12,1.39-3.64.45-.43,1.51-.69,2.45-.29,1.24.6,1.4,2.57.83,3.52,5.69-1.53,4.86-7.06,2.81-8.89-1.66-1.49-3.39-1.6-4.69-1.01Z"/>
      <path class="cls-7" d="M176.21,137.7c-.66-.85-.68-2.84.49-3.62.9-.54,1.97-.42,2.46-.05.83.42,1.65,1.89,1.72,3.45-.91.05-1.81.11-2.72.18l.14,3.05c1.88-.13,3.76-.25,5.65-.34,0,1.59-.79,2.86-2.34,3.64.22.65,1.25,1.94,2.57,1.78.33,1.41.6,2.2,1.84,3.44,1.12-1.35,1.32-2.16,1.51-3.59,1.33.04,2.24-1.33,2.39-2-1.62-.64-2.53-1.83-2.67-3.42,1.88-.07,3.77-.12,5.65-.15l-.14-3.05c-.91.01-1.81.03-2.72.06-.07-1.56.61-3.09,1.4-3.58.45-.41,1.51-.62,2.46-.16,1.24.67,1.4,2.66.83,3.56,5.71-1.07,4.88-6.59,2.82-8.63-1.66-1.64-3.4-1.87-4.71-1.35-2.98,1.13-4.84,4.83-4.69,10.22-.53.02-1.06.04-1.58.06-.23-4.89.55-6.49,2.49-12.73,1-2.94.15-6.52-2-9.76-.79-1.16-1.74-2.19-2.81-3.3-.96,1.2-1.81,2.31-2.49,3.53-1.83,3.42-2.35,7.06-1.08,9.9,2.51,6.04,3.43,7.57,3.66,12.46-.53.03-1.06.05-1.58.08-.35-5.38-2.55-8.9-5.62-9.77-1.35-.4-3.06-.03-4.56,1.74-1.86,2.19-2.17,7.77,3.61,8.37Z"/>
      <path class="cls-7" d="M60.96,143.34c-2.97,1.3-4.84,5.02-4.68,10.42-.53.03-1.06.06-1.58.08-.23-4.89.55-6.49,2.48-12.79,1-2.98.15-6.52-1.99-9.72-.79-1.14-1.74-2.16-2.81-3.27-.96,1.2-1.81,2.3-2.49,3.51-1.83,3.37-2.35,6.98-1.08,9.86,2.51,6.1,3.44,7.62,3.66,12.52-.53.02-1.06.04-1.58.06-.35-5.39-2.55-8.93-5.63-9.97-1.35-.48-3.07-.23-4.58,1.39-1.87,1.98-2.18,7.57,3.62,8.63-.66-.89-.68-2.88.5-3.58.9-.48,1.98-.31,2.47.08.83.46,1.65,1.95,1.73,3.51-.91.02-1.81.04-2.72.06l.14,3.05c1.89-.03,3.77-.08,5.65-.15,0,1.59-.79,2.85-2.34,3.58.22.66,1.25,1.98,2.57,1.83.33,1.41.6,2.2,1.84,3.45,1.12-1.35,1.32-2.17,1.51-3.6,1.33.03,2.23-1.38,2.39-2.05-1.61-.59-2.52-1.78-2.67-3.36,1.88-.09,3.76-.21,5.65-.34l-.14-3.05c-.91.06-1.81.12-2.72.18-.07-1.56.61-3.12,1.39-3.64.45-.43,1.51-.69,2.45-.29,1.24.6,1.4,2.57.83,3.52,5.69-1.53,4.86-7.06,2.81-8.89-1.66-1.49-3.39-1.6-4.69-1.01Z"/>
      <path class="cls-7" d="M132.27,12.62c-12.54,1.98-25.07,4.2-37.62,6.18.88,18.91,1.77,37.82,2.65,56.73-31.36,4.94-62.79,8.3-94.66,2.21.59,12.61,1.18,25.21,1.77,37.82,31.87,6.09,63.3,2.73,94.66-2.21.88,18.91,1.77,37.82,2.65,56.73,12.54-1.98,25.07-4.2,37.62-6.18-.88-18.91-1.77-37.82-2.65-56.73,31.36-4.94,62.79-8.3,94.66-2.21-.59-12.61-1.18-25.21-1.77-37.82-31.87-6.09-63.3-2.73-94.66,2.21l-2.65-56.73Z"/>
      <path class="cls-7" d="M188.44,32.35c-2.98,1.13-4.84,4.83-4.69,10.22-.53.02-1.06.04-1.58.06-.23-4.89.55-6.49,2.49-12.73,1-2.94.15-6.52-2-9.76-.79-1.16-1.74-2.19-2.81-3.3-.96,1.2-1.81,2.31-2.49,3.53-1.83,3.42-2.35,7.06-1.08,9.9,2.51,6.04,3.43,7.57,3.66,12.46-.53.03-1.06.05-1.58.08-.35-5.38-2.55-8.9-5.62-9.77-1.35-.4-3.06-.03-4.56,1.74-1.86,2.19-2.17,7.77,3.61,8.37-.66-.85-.68-2.84.49-3.62.9-.54,1.97-.42,2.46-.05.83.42,1.65,1.89,1.72,3.45-.91.05-1.81.11-2.72.18l.14,3.05c1.88-.13,3.76-.25,5.65-.34,0,1.59-.79,2.86-2.34,3.64.22.65,1.25,1.94,2.57,1.78.33,1.41.6,2.2,1.84,3.44,1.12-1.35,1.32-2.16,1.51-3.59,1.33.04,2.24-1.33,2.39-2-1.62-.64-2.53-1.83-2.67-3.42,1.88-.07,3.77-.12,5.65-.15l-.14-3.05c-.91.01-1.81.03-2.72.06-.07-1.56.61-3.09,1.4-3.58.45-.41,1.51-.62,2.46-.16,1.24.67,1.4,2.66.83,3.56,5.71-1.07,4.88-6.59,2.82-8.63-1.66-1.64-3.4-1.87-4.71-1.35Z"/>
      <path class="cls-5" d="M94.66,18.8C63.3,23.74,31.87,27.11,0,21.01c.88,18.91,1.77,37.82,2.65,56.73,31.87,6.09,63.3,2.73,94.66-2.21-.88-18.91-1.77-37.82-2.65-56.73Z"/>
      <path class="cls-7" d="M58.43,58.68c.57-.95.41-2.92-.83-3.52-.94-.4-2-.14-2.45.29-.78.53-1.47,2.08-1.39,3.64.91-.05,1.81-.11,2.72-.18l.14,3.05c-1.88.13-3.76.25-5.65.34.14,1.58,1.05,2.77,2.67,3.36-.16.67-1.06,2.08-2.39,2.05-.19,1.43-.39,2.25-1.51,3.6-1.24-1.25-1.52-2.05-1.84-3.45-1.32.14-2.35-1.18-2.57-1.83,1.55-.73,2.35-2,2.34-3.58-1.88.07-3.77.12-5.65.15l-.14-3.05c.91-.01,1.81-.03,2.72-.06-.07-1.56-.9-3.05-1.73-3.51-.49-.39-1.57-.56-2.47-.08-1.18.7-1.15,2.68-.5,3.58-5.81-1.05-5.5-6.65-3.62-8.63,1.51-1.62,3.23-1.87,4.58-1.39,3.08,1.05,5.28,4.58,5.63,9.97.53-.02,1.06-.04,1.58-.06-.23-4.9-1.15-6.41-3.66-12.52-1.27-2.88-.75-6.48,1.08-9.86.68-1.21,1.53-2.3,2.49-3.51,1.07,1.11,2.02,2.13,2.81,3.27,2.14,3.2,2.99,6.75,1.99,9.72-1.93,6.3-2.71,7.89-2.48,12.79.53-.03,1.06-.05,1.58-.08-.16-5.4,1.71-9.11,4.68-10.42,1.3-.59,3.03-.49,4.69,1.01,2.05,1.83,2.88,7.36-2.81,8.89Z"/>
      <path class="cls-5" d="M132.27,12.62l2.65,56.73c31.36-4.94,62.79-8.3,94.66-2.21-.88-18.91-1.77-37.82-2.65-56.73-31.87-6.09-63.3-2.73-94.66,2.21Z"/>
      <path class="cls-7" d="M190.33,42.33c.57-.9.41-2.89-.83-3.56-.95-.46-2-.26-2.46.16-.78.49-1.47,2.02-1.4,3.58.91-.02,1.81-.04,2.72-.06l.14,3.05c-1.89.03-3.77.08-5.65.15.15,1.58,1.05,2.78,2.67,3.42-.16.67-1.07,2.04-2.39,2-.19,1.43-.39,2.24-1.51,3.59-1.24-1.25-1.52-2.04-1.84-3.44-1.32.16-2.35-1.13-2.57-1.78,1.55-.78,2.34-2.05,2.34-3.64-1.88.09-3.76.21-5.65.34l-.14-3.05c.91-.06,1.81-.12,2.72-.18-.07-1.56-.9-3.03-1.72-3.45-.49-.37-1.56-.49-2.46.05-1.17.78-1.15,2.77-.49,3.62-5.78-.6-5.48-6.18-3.61-8.37,1.5-1.77,3.22-2.14,4.56-1.74,3.07.87,5.27,4.39,5.62,9.77.53-.03,1.06-.06,1.58-.08-.23-4.89-1.15-6.42-3.66-12.46-1.27-2.84-.75-6.48,1.08-9.9.68-1.22,1.53-2.33,2.49-3.53,1.07,1.11,2.02,2.14,2.81,3.3,2.14,3.24,3,6.83,2,9.76-1.94,6.23-2.71,7.84-2.49,12.73.53-.02,1.06-.04,1.58-.06-.16-5.39,1.71-9.09,4.69-10.22,1.3-.51,3.04-.29,4.71,1.35,2.06,2.04,2.89,7.56-2.82,8.63Z"/>
      <path class="cls-5" d="M4.42,115.57c.88,18.91,1.77,37.82,2.65,56.73,31.87,6.09,63.3,2.73,94.66-2.21-.88-18.91-1.77-37.82-2.65-56.73-31.36,4.94-62.79,8.3-94.66,2.21Z"/>
      <path class="cls-7" d="M62.84,153.24c.57-.95.41-2.92-.83-3.52-.94-.4-2-.14-2.45.29-.78.53-1.47,2.08-1.39,3.64.91-.05,1.81-.11,2.72-.18l.14,3.05c-1.88.13-3.76.25-5.65.34.14,1.58,1.05,2.77,2.67,3.36-.16.67-1.06,2.08-2.39,2.05-.19,1.43-.39,2.25-1.51,3.6-1.24-1.25-1.52-2.05-1.84-3.45-1.32.14-2.35-1.18-2.57-1.83,1.55-.73,2.35-2,2.34-3.58-1.88.07-3.77.12-5.65.15l-.14-3.05c.91-.01,1.81-.03,2.72-.06-.07-1.56-.9-3.05-1.73-3.51-.49-.39-1.57-.56-2.47-.08-1.18.7-1.15,2.68-.5,3.58-5.81-1.05-5.5-6.65-3.62-8.63,1.51-1.62,3.23-1.87,4.58-1.39,3.08,1.05,5.28,4.58,5.63,9.97.53-.02,1.06-.04,1.58-.06-.23-4.9-1.15-6.41-3.66-12.52-1.27-2.88-.75-6.48,1.08-9.86.68-1.21,1.53-2.3,2.49-3.51,1.07,1.11,2.02,2.13,2.81,3.27,2.14,3.2,2.99,6.75,1.99,9.72-1.93,6.3-2.71,7.89-2.48,12.79.53-.03,1.06-.05,1.58-.08-.16-5.4,1.71-9.11,4.68-10.42,1.3-.59,3.03-.49,4.69,1.01,2.05,1.83,2.88,7.36-2.81,8.89Z"/>
      <path class="cls-5" d="M139.34,163.91c31.36-4.94,62.79-8.3,94.66-2.21-.88-18.91-1.77-37.82-2.65-56.73-31.87-6.09-63.3-2.73-94.66,2.21l2.65,56.73Z"/>
      <path class="cls-7" d="M172.6,129.33c1.5-1.77,3.22-2.14,4.56-1.74,3.07.87,5.27,4.39,5.62,9.77.53-.03,1.06-.06,1.58-.08-.23-4.89-1.15-6.42-3.66-12.46-1.27-2.84-.75-6.48,1.08-9.9.68-1.22,1.53-2.33,2.49-3.53,1.07,1.11,2.02,2.14,2.81,3.3,2.14,3.24,3,6.83,2,9.76-1.94,6.23-2.71,7.84-2.49,12.73.53-.02,1.06-.04,1.58-.06-.16-5.39,1.71-9.09,4.69-10.22,1.3-.51,3.04-.29,4.71,1.35,2.06,2.04,2.89,7.56-2.82,8.63.57-.9.41-2.89-.83-3.56-.95-.46-2-.26-2.46.16-.78.49-1.47,2.02-1.4,3.58.91-.02,1.81-.04,2.72-.06l.14,3.05c-1.89.03-3.77.08-5.65.15.15,1.58,1.05,2.78,2.67,3.42-.16.67-1.07,2.04-2.39,2-.19,1.43-.39,2.24-1.51,3.59-1.24-1.25-1.52-2.04-1.84-3.44-1.32.16-2.35-1.13-2.57-1.78,1.55-.78,2.34-2.05,2.34-3.64-1.88.09-3.76.21-5.65.34l-.14-3.05c.91-.06,1.81-.12,2.72-.18-.07-1.56-.9-3.03-1.72-3.45-.49-.37-1.56-.49-2.46.05-1.17.78-1.15,2.77-.49,3.62-5.78-.6-5.48-6.18-3.61-8.37Z"/>
    </g>
  </g>
</svg>